<?xml version="1.0" encoding="utf-8"?>
<svg version="1.1" xmlns="http://www.w3.org/2000/svg" viewBox="20 20 170 102" preserveAspectRatio="xMaxYMin slice">
  <defs>
    <linearGradient id="bgGradient" x1="0" x2="0" y1="0" y2="1">
      <stop offset="0%" stop-color="#ffffff"/>
      <stop offset="60%" stop-color="#eeeeee"/>
    </linearGradient>
  </defs>
  <rect x="20" y="20" width="170" height="102" fill="url(#bgGradient)"/>
  <path fill="#bbbbbb" fill-opacity=".20" d="M340.787,102.835c-1.77-3.279-3.554-3.658-4.74-3.658c-1.125,0-2.445,0.405-3.933,1.205l-54.227,29.782
    l55.229-91.901c1.526-2.551,1.968-5.557,1.244-8.464c-0.725-2.909-2.524-5.354-5.074-6.889l-19.4-11.656
    c-1.7-1.023-4.056-1.588-6.647-1.588c-1.853,0-4.466,1.249-7.18,3.424l-106.884,95.429l42.21-70.256
    c1.527-2.547,1.973-5.552,1.25-8.469c-0.724-2.904-2.525-5.349-5.08-6.884l-19.4-11.656c-1.721-1.041-4.06-1.588-6.761-1.588
    c-2.091,0-4.183,0.794-5.736,2.176L87.172,108.696l42.325-70.433c3.177-5.287,1.456-12.176-3.834-15.353l-19.401-11.656
    c-1.686-1.014-3.822-1.57-6.015-1.57c-1.438,0-3.362,0.595-5.892,1.818L12.277,56.458c-2.004,1.077-3.239,2.295-3.685,3.619
    c-0.446,1.31-0.159,2.926,0.852,4.797l2.374,4.417c1.765,3.279,3.548,3.659,4.735,3.659c1.121,0,2.445-0.406,3.932-1.205
    l54.253-29.74l-55.21,91.889c-1.532,2.546-1.977,5.552-1.25,8.46c0.729,2.913,2.533,5.358,5.08,6.893l19.396,11.656
    c1.716,1.028,3.689,1.571,5.701,1.571c2.896-0.005,4.96-0.72,6.907-2.26l108.386-96.766l-42.331,70.446
    c-1.527,2.542-1.974,5.548-1.245,8.46c0.724,2.909,2.523,5.358,5.076,6.893l19.403,11.656c1.703,1.024,3.673,1.566,5.697,1.566
    c3.332,0,6.73-2.236,8.271-3.561l106.774-95.315l-42.251,70.301c-3.173,5.283-1.456,12.173,3.83,15.353l19.405,11.656
    c1.708,1.024,3.685,1.566,5.71,1.571l0.27-0.005c1.628,0,4.276-0.909,5.812-1.756l82.148-45.045
    c2.009-1.081,3.248-2.299,3.694-3.627c0.446-1.307,0.158-2.918-0.852-4.793L340.787,102.835z"/>
</svg>

